<?xml version="1.0" standalone="no"?>
<!DOCTYPE svg PUBLIC "-//W3C//DTD SVG 20010904//EN"
 "http://www.w3.org/TR/2001/REC-SVG-20010904/DTD/svg10.dtd">
<svg version="1.0" xmlns="http://www.w3.org/2000/svg"
 width="1500.000000pt" height="1500.000000pt" viewBox="0 0 1500.000000 1500.000000"
 preserveAspectRatio="xMidYMid meet">
<metadata>
Created by potrace 1.14, written by Peter Selinger 2001-2017
</metadata>
<g transform="translate(0.000000,1500.000000) scale(0.100000,-0.100000)"
fill="#000000" stroke="none">
<path d="M7287 14574 c-1 -1 -74 -4 -162 -8 -88 -3 -171 -8 -185 -10 -14 -2
-61 -7 -105 -11 -126 -10 -168 -14 -200 -20 -16 -2 -48 -7 -70 -10 -143 -20
-238 -34 -261 -39 -12 -2 -39 -7 -60 -10 -22 -4 -46 -8 -54 -11 -8 -2 -33 -6
-55 -10 -22 -3 -56 -10 -75 -15 -19 -5 -50 -12 -68 -15 -33 -5 -281 -67 -427
-105 -91 -24 -484 -154 -532 -176 -17 -7 -36 -14 -42 -14 -6 0 -19 -4 -29 -9
-26 -14 -89 -41 -96 -41 -14 0 -305 -129 -454 -201 -161 -78 -470 -246 -580
-316 -31 -20 -86 -54 -122 -77 -185 -116 -555 -380 -635 -453 -11 -10 -43 -36
-70 -58 -279 -221 -642 -578 -900 -885 -44 -52 -82 -97 -85 -100 -15 -13 -186
-237 -257 -335 -66 -92 -225 -326 -270 -400 -251 -408 -446 -802 -619 -1250
-49 -128 -162 -478 -207 -645 -50 -181 -80 -315 -122 -530 -22 -111 -47 -268
-60 -375 -2 -21 -9 -73 -15 -115 -5 -41 -12 -109 -16 -150 -3 -41 -8 -86 -10
-100 -23 -169 -23 -962 0 -1160 3 -19 7 -67 10 -105 4 -39 8 -81 10 -95 3 -14
7 -52 11 -85 9 -88 13 -122 26 -200 14 -94 50 -291 63 -355 3 -14 10 -47 16
-75 12 -56 12 -58 39 -175 70 -297 226 -777 336 -1035 246 -574 494 -1011 843
-1490 284 -389 628 -766 1013 -1110 344 -307 831 -654 1219 -868 36 -19 94
-52 130 -71 482 -265 1243 -553 1716 -651 11 -2 62 -13 114 -25 52 -12 118
-25 145 -30 28 -5 61 -12 75 -15 14 -3 39 -7 57 -10 18 -2 58 -9 90 -14 32 -6
78 -13 103 -16 25 -3 58 -8 75 -11 59 -10 182 -25 245 -30 36 -3 79 -7 95 -9
194 -27 972 -27 1240 -1 17 2 62 6 100 10 39 4 77 9 85 11 8 2 46 6 83 10 37
3 76 8 85 9 9 2 44 7 77 11 32 4 68 9 80 11 11 2 49 9 85 14 36 6 99 18 140
26 41 9 86 18 99 20 91 18 350 81 470 115 237 67 626 200 756 259 11 5 70 30
130 56 451 190 987 499 1408 813 121 89 342 264 357 280 3 3 39 35 80 71 263
229 572 544 790 805 222 266 455 596 653 926 163 271 281 507 464 927 49 112
150 397 218 617 74 238 175 668 209 890 27 170 38 249 51 370 5 47 8 70 19
185 28 269 28 1056 2 1220 -2 14 -7 61 -10 105 -4 44 -9 94 -11 110 -2 17 -7
50 -10 75 -9 71 -35 252 -40 280 -3 14 -14 77 -26 140 -11 63 -22 117 -24 120
-2 3 -6 23 -9 45 -4 22 -18 87 -31 145 -30 123 -35 148 -36 155 0 2 -5 19 -10
37 -6 18 -26 87 -45 153 -40 140 -110 357 -129 400 -7 17 -18 48 -25 70 -7 22
-18 54 -25 70 -17 39 -27 67 -30 80 -9 39 -175 406 -259 575 -512 1022 -1251
1894 -2181 2572 -636 464 -1388 835 -2135 1053 -115 34 -481 129 -533 139 -12
2 -49 9 -82 15 -33 6 -71 13 -85 16 -14 3 -38 7 -55 10 -16 3 -43 7 -60 10
-62 11 -141 24 -185 30 -84 11 -116 15 -135 19 -11 2 -51 7 -90 10 -38 4 -88
9 -111 12 -130 16 -372 27 -652 28 -134 0 -244 0 -245 0z m643 -128 c243 -18
312 -25 500 -51 63 -8 135 -18 160 -21 160 -19 547 -106 863 -193 85 -24 423
-135 472 -156 17 -7 102 -41 190 -75 88 -35 165 -66 170 -70 6 -4 62 -30 125
-58 178 -79 522 -260 691 -365 161 -99 246 -155 389 -255 170 -119 410 -304
490 -376 25 -23 70 -61 100 -86 151 -125 469 -442 653 -652 232 -265 407 -496
591 -778 49 -74 97 -147 107 -162 11 -15 19 -30 19 -32 0 -3 16 -30 34 -59 76
-119 356 -654 356 -681 0 -2 15 -37 34 -78 94 -204 273 -698 326 -902 51 -194
80 -310 84 -330 3 -11 7 -30 10 -41 16 -63 73 -365 81 -432 2 -13 6 -41 10
-63 4 -22 8 -50 9 -63 2 -12 6 -40 9 -62 4 -22 9 -67 12 -100 6 -68 14 -143
20 -195 27 -236 27 -929 0 -1229 -9 -93 -16 -157 -21 -186 -5 -35 -15 -123
-16 -145 0 -8 -4 -37 -9 -65 -5 -27 -11 -61 -14 -75 -7 -48 -16 -105 -20 -130
-2 -14 -11 -61 -20 -105 -10 -44 -19 -91 -21 -105 -3 -14 -7 -32 -9 -40 -2 -8
-7 -31 -10 -50 -3 -19 -17 -78 -31 -130 -15 -52 -27 -104 -29 -115 -3 -18 -84
-302 -105 -365 -32 -98 -102 -299 -110 -315 -5 -11 -32 -78 -60 -150 -28 -71
-59 -148 -69 -170 -10 -22 -29 -65 -42 -95 -50 -117 -249 -502 -330 -638 -46
-79 -88 -152 -94 -162 -5 -11 -13 -20 -17 -20 -5 0 -8 -5 -8 -11 0 -10 -202
-319 -230 -352 -6 -6 -45 -59 -88 -116 -42 -57 -86 -116 -97 -130 -23 -31
-157 -194 -165 -201 -3 -3 -18 -21 -34 -40 -99 -122 -440 -473 -591 -610 -157
-142 -340 -297 -420 -355 -22 -17 -42 -33 -45 -36 -7 -9 -208 -154 -320 -231
-211 -145 -569 -355 -785 -461 -213 -103 -476 -222 -515 -231 -3 -1 -54 -21
-115 -45 -252 -100 -717 -244 -895 -277 -14 -3 -50 -11 -80 -19 -65 -17 -82
-20 -223 -45 -60 -11 -116 -21 -125 -24 -9 -3 -69 -12 -132 -21 -63 -8 -126
-17 -140 -19 -23 -4 -84 -10 -202 -22 -27 -2 -69 -6 -95 -9 -77 -7 -210 -16
-323 -20 -131 -5 -563 -6 -610 -1 -19 2 -89 7 -155 10 -66 4 -133 9 -150 11
-34 5 -96 12 -170 20 -48 5 -102 12 -175 21 -19 2 -42 6 -50 9 -8 2 -35 7 -60
10 -25 3 -57 8 -72 11 -16 2 -43 6 -60 9 -18 3 -53 10 -78 15 -25 5 -56 12
-70 14 -24 5 -113 22 -155 30 -11 2 -66 16 -121 30 -56 15 -110 28 -120 31
-69 14 -328 92 -494 149 -479 165 -970 398 -1394 662 -69 44 -134 84 -144 89
-28 17 -77 49 -82 55 -3 3 -41 30 -85 59 -66 45 -219 156 -285 208 -88 68
-271 220 -335 277 -43 39 -95 85 -114 101 -90 79 -427 425 -535 550 -139 160
-329 398 -429 537 -69 98 -267 395 -267 403 0 2 -26 46 -58 97 -32 51 -68 113
-81 138 -13 25 -34 65 -48 90 -91 159 -251 501 -345 735 -78 192 -206 568
-233 682 -3 10 -23 86 -45 170 -34 128 -77 318 -94 413 -2 14 -7 36 -10 50 -3
14 -8 41 -11 60 -2 19 -7 46 -10 60 -3 14 -7 43 -10 65 -3 22 -7 49 -9 60 -3
18 -19 135 -31 235 -2 19 -7 67 -10 105 -3 39 -8 92 -11 119 -25 273 -25 921
1 1146 2 19 7 62 10 95 14 149 27 261 40 335 1 8 6 40 10 70 4 30 9 64 12 75
2 11 5 31 7 45 4 25 30 162 41 210 3 14 7 34 9 45 25 119 41 188 67 285 17 63
32 122 34 130 6 27 93 303 133 420 139 406 365 889 605 1290 113 190 302 471
394 585 5 6 19 26 33 45 51 73 226 284 369 445 146 163 444 456 606 596 61 51
112 96 115 100 23 25 340 268 420 321 14 10 50 35 80 57 137 100 479 309 660
404 117 61 320 163 370 185 450 200 771 313 1200 424 190 49 178 46 274 64 44
8 96 19 116 24 31 8 206 37 340 56 19 3 46 7 60 10 23 4 45 7 168 19 26 2 70
7 97 10 73 9 151 14 330 21 88 4 161 8 163 9 4 4 540 -4 602 -9z"/>
<path d="M7139 14435 c-2 -1 -58 -6 -124 -10 -148 -9 -209 -14 -320 -30 -16
-3 -57 -7 -90 -10 -33 -3 -67 -7 -75 -10 -8 -2 -37 -6 -65 -10 -76 -9 -118
-16 -135 -20 -8 -3 -33 -7 -55 -11 -22 -3 -71 -12 -110 -20 -38 -8 -86 -17
-105 -20 -43 -7 -282 -66 -405 -101 -49 -14 -99 -27 -109 -29 -73 -14 -594
-199 -731 -259 -410 -180 -660 -309 -970 -503 -157 -98 -456 -301 -520 -354
-5 -5 -59 -47 -120 -95 -106 -82 -212 -170 -246 -203 -9 -8 -40 -35 -70 -59
-112 -92 -558 -551 -700 -721 -589 -708 -1016 -1473 -1284 -2300 -26 -80 -51
-156 -56 -170 -5 -14 -11 -34 -14 -45 -3 -11 -18 -69 -35 -130 -16 -60 -32
-119 -34 -130 -2 -11 -9 -40 -16 -63 -6 -24 -27 -118 -45 -208 -34 -163 -61
-316 -90 -516 -5 -38 -13 -108 -21 -188 -3 -30 -7 -73 -9 -95 -27 -272 -28
-1075 -1 -1245 2 -14 7 -59 10 -100 4 -41 8 -86 11 -100 2 -14 6 -45 9 -70 5
-46 20 -152 32 -225 5 -37 50 -273 60 -320 2 -11 6 -29 8 -41 2 -11 16 -70 31
-130 14 -60 28 -116 30 -124 21 -95 119 -422 173 -575 115 -325 286 -714 424
-963 17 -32 44 -82 61 -112 17 -30 41 -72 54 -92 12 -21 23 -40 23 -42 0 -8
100 -167 205 -326 101 -152 125 -186 289 -406 246 -331 694 -794 1056 -1093
41 -35 84 -70 95 -79 11 -9 40 -33 65 -52 25 -19 47 -37 50 -40 26 -27 304
-223 465 -327 106 -68 360 -219 460 -273 44 -24 86 -47 93 -53 6 -5 12 -6 12
-2 0 5 8 1 18 -7 17 -15 218 -115 317 -158 494 -216 950 -365 1423 -465 12 -3
32 -7 45 -10 12 -3 38 -8 57 -11 19 -3 53 -9 75 -14 22 -5 103 -19 180 -30
143 -22 164 -25 250 -35 28 -4 57 -8 65 -10 8 -2 58 -7 110 -10 52 -4 111 -8
130 -10 144 -12 309 -18 510 -18 223 0 568 10 579 18 4 1 47 6 96 9 50 4 97 9
105 11 8 2 46 6 83 10 37 3 76 8 85 9 9 2 44 7 77 12 33 4 62 8 65 9 3 0 27 4
53 9 27 4 58 9 70 12 12 2 39 6 62 10 22 3 45 7 50 8 13 3 75 16 95 20 76 14
103 20 155 33 33 8 69 17 80 19 24 4 138 35 285 76 164 47 472 151 615 208
140 56 166 67 263 111 35 16 65 29 69 29 5 0 395 193 423 210 8 5 98 57 200
115 274 158 604 382 825 560 83 66 229 188 246 204 9 9 52 47 95 86 162 143
483 472 634 651 93 110 129 154 224 279 58 77 110 145 115 151 56 70 321 477
321 494 0 4 4 10 8 12 8 3 76 117 149 253 69 126 273 546 273 560 0 2 11 28
24 57 64 143 193 502 252 703 63 213 139 525 159 648 3 18 10 52 15 77 12 57
37 209 45 275 4 28 8 57 10 65 2 8 7 47 11 85 3 39 8 72 9 75 2 3 6 47 10 98
3 50 8 101 10 112 8 43 18 354 18 575 0 213 -7 421 -18 540 -20 205 -26 264
-31 300 -7 54 -15 110 -19 140 -2 17 -8 59 -14 95 -5 36 -12 81 -15 100 -8 56
-43 228 -65 320 -11 47 -22 96 -25 110 -4 27 -38 155 -60 230 -8 25 -14 48
-14 53 -1 9 -63 210 -99 317 -25 78 -69 201 -83 235 -4 11 -25 63 -45 115 -90
229 -233 533 -347 739 -32 58 -58 106 -58 108 0 8 -183 303 -261 419 -510 769
-1145 1407 -1923 1934 -84 57 -246 160 -252 160 -1 0 -22 13 -46 29 -24 16
-63 40 -88 53 -25 14 -90 49 -145 80 -257 141 -676 338 -718 338 -7 0 -17 4
-23 9 -15 15 -446 173 -534 196 -8 2 -40 11 -70 20 -82 23 -351 95 -380 101
-14 3 -53 11 -86 19 -34 8 -74 17 -90 19 -15 3 -53 11 -83 17 -31 7 -65 13
-76 15 -11 1 -20 3 -20 4 0 3 -82 18 -140 25 -16 3 -47 7 -68 11 -40 6 -52 8
-142 19 -33 4 -69 9 -80 11 -19 4 -52 7 -201 19 -38 3 -86 8 -105 11 -36 6
-874 15 -880 9z"/>
</g>
</svg>
